# xmcd CD database file
#
# Track frame offsets:
#	150
#	19147
#	41946
#	61365
#	83955
#	101431
#	120015
#	141888
#	151044
#
# Disc length: 2531 seconds
#
# Revision: 2
# Processed by: cddbd v1.5.1PL0 Copyright (c) Steve Scherf et al.
# Submitted via: CDex 1.51
#
DISCID=6909e109
DTITLE=中間　英明 - Point Of No Return
DYEAR=1989
DGENRE=Metal
TTITLE0=Inquisition
TTITLE1=In 2040, On The Beach
TTITLE2=Wings Of Destiny
TTITLE3=El Giza
TTITLE4=Requiem
TTITLE5=Stranger To You
TTITLE6=Smiling Landscape
TTITLE7=A Short Piece For A Guitar And Strings
TTITLE8=Point Of No Return
EXTD=YEAR: 1989
EXTT0=
EXTT1=
EXTT2=
EXTT3=
EXTT4=
EXTT5=
EXTT6=
EXTT7=
EXTT8=
PLAYORDER=
